<svg viewBox="0 0 224 34" fill="none" xmlns="http://www.w3.org/2000/svg">
<g clip-path="url(#clip0_411_8229)">
<path d="M115.37 18.86C116.29 16.66 118.18 15.36 120.98 15.36C123.78 15.36 125.62 16.72 126.35 18.86H115.36H115.37ZM40.58 0C38.38 0 36.55 1.81 36.55 4.1C36.55 6.39 38.48 7.99 40.58 7.99C42.93 7.99 44.71 6.06 44.71 3.98C44.71 1.9 42.85 0 40.58 0ZM37.94 33.16H43.35V10.85H37.94V33.17V33.16ZM94.43 28.65C90.76 28.65 87.68 25.76 87.68 22C87.68 18.24 90.58 15.37 94.45 15.37C98.32 15.37 101.22 18.35 101.22 22C101.22 25.65 98.13 28.65 94.41 28.65H94.42H94.43ZM67.62 28.65C63.9 28.65 60.87 25.7 60.87 22.02C60.87 18.34 63.89 15.37 67.59 15.37C71.29 15.37 74.4 18.32 74.4 22.02C74.4 25.72 71.35 28.65 67.63 28.65H67.62ZM47.29 33.16H52.7V0.27H47.29V33.15V33.16ZM157.78 15.94V10.86H152.37V33.18H157.78V23.76C157.78 19.18 162.76 16.39 167.67 16.39V10.88H167.12C162.96 10.88 159.94 12.38 157.78 15.96V15.94ZM140.62 15.94V10.86H135.21V33.18H140.62V23.76C140.62 19.18 145.6 16.39 150.51 16.39V10.88H149.96C145.8 10.88 142.78 12.38 140.62 15.96V15.94ZM121.3 10.03C114.55 10.03 109.09 15.21 109.09 21.74C109.09 28.27 113.88 34 121 34C125.28 34 128.73 31.98 131.17 28.52L126.96 25.15C125.73 27.32 123.38 28.58 121.04 28.58C117.99 28.58 115 26.44 114.75 23.31H132.42V21.69C132.42 14.85 127.85 10.03 121.3 10.03ZM24.58 23.54L19.63 10.83H15.84L10.86 23.54L5.88 10.83H0L8.7 33.17H12.49L17.71 19.86L22.96 33.17H26.75L35.42 10.83H29.55L24.57 23.54H24.58ZM66.4 10.35C60.38 10.95 55.47 16.07 55.47 22.15C55.47 28.59 61.06 33.98 67.58 33.98C74.1 33.98 79.69 28.59 79.69 22.15C79.69 19.41 78.68 16.88 77.06 14.9L65.12 0.27H58.13L66.4 10.36V10.35ZM94.46 9.99C91.92 9.99 89.63 10.75 87.69 12.04V0.24H82.28V22.01C82.28 28.64 87.74 33.96 94.44 33.96C101.14 33.96 106.65 28.66 106.65 21.94C106.65 15.22 101.24 9.99 94.47 9.99H94.46ZM172.68 0C170.48 0 168.62 1.81 168.62 4.07C168.62 6.33 170.43 7.96 172.78 7.96C175.13 7.96 176.75 6.36 176.75 4.17C176.75 1.98 174.91 0.01 172.68 0.01V0ZM170 33.16H175.41V10.85H170V33.17V33.16ZM190.3 10.03C183.55 10.03 178.12 15.21 178.12 22.05C178.12 28.46 182.91 34 189.99 34C194.27 34 197.72 31.98 200.16 28.52L196.44 25.42C195.13 27.4 192.74 28.59 189.91 28.59C187.08 28.59 184.01 26.45 183.77 23.32H201.39V21.46C201.39 14.86 196.84 10.04 190.31 10.04H190.3V10.03ZM184.4 18.85C185.29 16.65 187.21 15.35 190.05 15.35C192.89 15.35 194.6 16.71 195.34 18.85H184.4ZM209.22 17.37C209.22 15.99 211.15 14.87 213.64 14.87C216.13 14.87 218.93 16.11 220.72 18.09L223.98 14.15C220.86 11.44 217.72 10.02 213.78 10.02C208.87 10.02 203.8 12.24 203.8 17.37C203.8 23.66 209.29 24.12 213.78 24.48C216.29 24.67 218.52 24.84 218.52 26.46C218.52 28.2 215.98 29.01 213.76 29.01C211.17 29.01 208.35 27.93 206.31 25.48L202.83 29.13C205.61 32.47 209.64 33.95 213.58 33.95C218.53 33.95 223.93 31.63 223.93 26.32C223.93 20.33 218.37 19.76 214.1 19.33C211.42 19.06 209.22 18.82 209.22 17.35V17.37Z" fill="#7F30E3"></path>
</g>
<defs>
<clipPath id="clip0_411_8229">
<rect width="224" height="34" fill="white"></rect>
</clipPath>
</defs>
</svg>
